<mxfile host="65bd71144e">
    <diagram id="yzknyQEGlie9Dj_gzy_1" name="Page-1">
        <mxGraphModel dx="170" dy="88" grid="1" gridSize="10" guides="1" tooltips="1" connect="1" arrows="1" fold="1" page="1" pageScale="1" pageWidth="827" pageHeight="1169" math="0" shadow="0">
            <root>
                <mxCell id="0"/>
                <mxCell id="1" parent="0"/>
                <mxCell id="108" style="edgeStyle=orthogonalEdgeStyle;rounded=0;html=1;exitX=1;exitY=0.5;exitDx=0;exitDy=0;exitPerimeter=0;entryX=1;entryY=0.57;entryDx=0;entryDy=0;entryPerimeter=0;endArrow=none;endFill=0;" parent="1" source="3" target="6" edge="1">
                    <mxGeometry relative="1" as="geometry"/>
                </mxCell>
                <mxCell id="3" value="" style="pointerEvents=1;verticalLabelPosition=bottom;shadow=0;dashed=0;align=center;html=1;verticalAlign=top;shape=mxgraph.electrical.resistors.resistor_2;direction=east;" parent="1" vertex="1">
                    <mxGeometry x="300" y="665" width="100" height="20" as="geometry"/>
                </mxCell>
                <mxCell id="6" value="" style="verticalLabelPosition=bottom;shadow=0;dashed=0;align=center;html=1;verticalAlign=top;shape=mxgraph.electrical.opto_electronics.led_2;pointerEvents=1;direction=west;" parent="1" vertex="1">
                    <mxGeometry x="450" y="645" width="100" height="70" as="geometry"/>
                </mxCell>
                <mxCell id="96" style="edgeStyle=orthogonalEdgeStyle;rounded=0;html=1;entryX=0.5;entryY=1;entryDx=0;entryDy=0;endArrow=none;endFill=0;startArrow=none;" parent="1" source="145" target="48" edge="1">
                    <mxGeometry relative="1" as="geometry"/>
                </mxCell>
                <mxCell id="105" style="edgeStyle=orthogonalEdgeStyle;rounded=0;html=1;exitX=0;exitY=0.5;exitDx=0;exitDy=0;endArrow=none;endFill=0;entryX=0;entryY=0.5;entryDx=0;entryDy=0;" parent="1" source="7" target="23" edge="1">
                    <mxGeometry relative="1" as="geometry">
                        <mxPoint x="240" y="520.0000000000001" as="targetPoint"/>
                        <Array as="points">
                            <mxPoint x="170" y="675"/>
                        </Array>
                    </mxGeometry>
                </mxCell>
                <mxCell id="7" value="" style="pointerEvents=1;verticalLabelPosition=bottom;shadow=0;dashed=0;align=center;html=1;verticalAlign=top;shape=mxgraph.electrical.miscellaneous.batteryStack;direction=north;" parent="1" vertex="1">
                    <mxGeometry x="140" y="390" width="60" height="100" as="geometry"/>
                </mxCell>
                <mxCell id="8" value="4.7 kÎ©&lt;span style=&quot;&quot;&gt;&lt;br&gt;&lt;/span&gt;" style="text;html=1;align=center;verticalAlign=middle;resizable=0;points=[];autosize=1;strokeColor=none;fillColor=none;rotation=0;" parent="1" vertex="1">
                    <mxGeometry x="278.25" y="286" width="60" height="30" as="geometry"/>
                </mxCell>
                <mxCell id="10" value="5 V" style="text;html=1;align=center;verticalAlign=middle;resizable=0;points=[];autosize=1;strokeColor=none;fillColor=none;" parent="1" vertex="1">
                    <mxGeometry x="190" y="410" width="40" height="30" as="geometry"/>
                </mxCell>
                <mxCell id="11" value="-" style="text;html=1;align=center;verticalAlign=middle;resizable=0;points=[];autosize=1;strokeColor=none;fillColor=none;" parent="1" vertex="1">
                    <mxGeometry x="173.75" y="470" width="30" height="30" as="geometry"/>
                </mxCell>
                <mxCell id="12" value="+" style="text;html=1;align=center;verticalAlign=middle;resizable=0;points=[];autosize=1;strokeColor=none;fillColor=none;" parent="1" vertex="1">
                    <mxGeometry x="173.75" y="384" width="30" height="30" as="geometry"/>
                </mxCell>
                <mxCell id="13" value="Bonnie Zhu&lt;br&gt;TEJ3M&lt;br&gt;Unit #4-09" style="text;html=1;align=left;verticalAlign=middle;resizable=0;points=[];autosize=1;strokeColor=none;fillColor=none;" parent="1" vertex="1">
                    <mxGeometry x="70" y="90" width="80" height="60" as="geometry"/>
                </mxCell>
                <mxCell id="99" style="edgeStyle=orthogonalEdgeStyle;rounded=0;html=1;entryX=1;entryY=0.5;entryDx=0;entryDy=0;entryPerimeter=0;endArrow=none;endFill=0;" parent="1" source="14" target="41" edge="1">
                    <mxGeometry relative="1" as="geometry"/>
                </mxCell>
                <mxCell id="102" style="edgeStyle=orthogonalEdgeStyle;rounded=0;html=1;exitX=1;exitY=0.88;exitDx=0;exitDy=0;endArrow=none;endFill=0;entryX=0.5;entryY=0;entryDx=0;entryDy=0;" parent="1" source="14" target="23" edge="1">
                    <mxGeometry relative="1" as="geometry">
                        <mxPoint x="240" y="500.0000000000001" as="targetPoint"/>
                        <Array as="points">
                            <mxPoint x="245" y="192"/>
                        </Array>
                    </mxGeometry>
                </mxCell>
                <mxCell id="14" value="" style="shape=mxgraph.electrical.electro-mechanical.twoWaySwitch;aspect=fixed;elSwitchState=2;direction=west;flipV=1;" parent="1" vertex="1">
                    <mxGeometry x="250" y="189" width="70" height="24.27" as="geometry"/>
                </mxCell>
                <mxCell id="106" style="edgeStyle=orthogonalEdgeStyle;rounded=0;html=1;exitX=1;exitY=0.5;exitDx=0;exitDy=0;entryX=0;entryY=0.5;entryDx=0;entryDy=0;entryPerimeter=0;endArrow=none;endFill=0;" parent="1" source="23" target="3" edge="1">
                    <mxGeometry relative="1" as="geometry"/>
                </mxCell>
                <mxCell id="23" value="" style="ellipse;whiteSpace=wrap;html=1;aspect=fixed;strokeColor=#000000;fillColor=#000000;" parent="1" vertex="1">
                    <mxGeometry x="240" y="670" width="10" height="10" as="geometry"/>
                </mxCell>
                <mxCell id="30" value="Output" style="text;html=1;align=center;verticalAlign=middle;resizable=0;points=[];autosize=1;strokeColor=none;fillColor=none;" parent="1" vertex="1">
                    <mxGeometry x="480" y="620" width="60" height="30" as="geometry"/>
                </mxCell>
                <mxCell id="31" value="OR Gate with Transistor&lt;br&gt;&lt;br&gt;A | B | Output&lt;br&gt;-------------&lt;br&gt;0 | 0 | 0&lt;br&gt;0 | 1 | 1&lt;br&gt;1 | 0 | 1&lt;br&gt;1 | 1 |1" style="text;html=1;align=center;verticalAlign=middle;resizable=0;points=[];autosize=1;strokeColor=none;fillColor=none;" parent="1" vertex="1">
                    <mxGeometry x="505" y="10" width="150" height="130" as="geometry"/>
                </mxCell>
                <mxCell id="110" style="edgeStyle=orthogonalEdgeStyle;rounded=0;html=1;exitX=0.7;exitY=1;exitDx=0;exitDy=0;exitPerimeter=0;endArrow=none;endFill=0;entryX=0.698;entryY=-0.012;entryDx=0;entryDy=0;entryPerimeter=0;" parent="1" source="34" target="141" edge="1">
                    <mxGeometry relative="1" as="geometry">
                        <mxPoint x="560" y="610" as="targetPoint"/>
                        <Array as="points">
                            <mxPoint x="565" y="400"/>
                            <mxPoint x="565" y="600"/>
                        </Array>
                    </mxGeometry>
                </mxCell>
                <mxCell id="34" value="" style="verticalLabelPosition=bottom;shadow=0;dashed=0;align=center;html=1;verticalAlign=top;shape=mxgraph.electrical.transistors.npn_transistor_1;direction=east;" parent="1" vertex="1">
                    <mxGeometry x="405" y="300" width="95" height="100" as="geometry"/>
                </mxCell>
                <mxCell id="101" style="edgeStyle=orthogonalEdgeStyle;rounded=0;html=1;exitX=0;exitY=0.5;exitDx=0;exitDy=0;exitPerimeter=0;entryX=0;entryY=0.5;entryDx=0;entryDy=0;entryPerimeter=0;endArrow=none;endFill=0;" parent="1" source="41" target="34" edge="1">
                    <mxGeometry relative="1" as="geometry">
                        <Array as="points">
                            <mxPoint x="340" y="360"/>
                            <mxPoint x="407" y="360"/>
                        </Array>
                    </mxGeometry>
                </mxCell>
                <mxCell id="41" value="" style="pointerEvents=1;verticalLabelPosition=bottom;shadow=0;dashed=0;align=center;html=1;verticalAlign=top;shape=mxgraph.electrical.resistors.resistor_2;direction=north;" parent="1" vertex="1">
                    <mxGeometry x="330" y="253" width="20" height="100" as="geometry"/>
                </mxCell>
                <mxCell id="93" style="edgeStyle=orthogonalEdgeStyle;rounded=0;html=1;endArrow=none;endFill=0;" parent="1" source="48" edge="1">
                    <mxGeometry relative="1" as="geometry">
                        <Array as="points">
                            <mxPoint x="170" y="160"/>
                            <mxPoint x="370" y="160"/>
                        </Array>
                        <mxPoint x="380" y="160" as="targetPoint"/>
                    </mxGeometry>
                </mxCell>
                <mxCell id="97" style="edgeStyle=orthogonalEdgeStyle;rounded=0;html=1;exitX=1;exitY=0.5;exitDx=0;exitDy=0;entryX=1;entryY=0.12;entryDx=0;entryDy=0;endArrow=none;endFill=0;" parent="1" source="48" target="14" edge="1">
                    <mxGeometry relative="1" as="geometry"/>
                </mxCell>
                <mxCell id="48" value="" style="ellipse;whiteSpace=wrap;html=1;aspect=fixed;strokeColor=#000000;fillColor=#000000;" parent="1" vertex="1">
                    <mxGeometry x="166.25" y="190" width="7.5" height="7.5" as="geometry"/>
                </mxCell>
                <mxCell id="57" value="input&amp;nbsp; A" style="text;html=1;align=center;verticalAlign=middle;resizable=0;points=[];autosize=1;strokeColor=none;fillColor=none;labelBackgroundColor=none;" parent="1" vertex="1">
                    <mxGeometry x="277.25" y="163.5" width="60" height="30" as="geometry"/>
                </mxCell>
                <mxCell id="117" style="edgeStyle=orthogonalEdgeStyle;rounded=0;html=1;entryX=0.7;entryY=0;entryDx=0;entryDy=0;entryPerimeter=0;endArrow=none;endFill=0;" parent="1" target="34" edge="1">
                    <mxGeometry relative="1" as="geometry">
                        <mxPoint x="360" y="160" as="sourcePoint"/>
                        <Array as="points">
                            <mxPoint x="364" y="160"/>
                            <mxPoint x="471" y="160"/>
                        </Array>
                    </mxGeometry>
                </mxCell>
                <mxCell id="107" value="220 Î©&lt;span style=&quot;&quot;&gt;&lt;br&gt;&lt;/span&gt;" style="text;html=1;align=center;verticalAlign=middle;resizable=0;points=[];autosize=1;strokeColor=none;fillColor=none;rotation=0;" parent="1" vertex="1">
                    <mxGeometry x="310" y="640" width="60" height="30" as="geometry"/>
                </mxCell>
                <mxCell id="123" style="edgeStyle=orthogonalEdgeStyle;html=1;exitX=0;exitY=0.5;exitDx=0;exitDy=0;exitPerimeter=0;entryX=0;entryY=0.5;entryDx=0;entryDy=0;entryPerimeter=0;endArrow=none;endFill=0;rounded=0;" parent="1" source="121" target="122" edge="1">
                    <mxGeometry relative="1" as="geometry"/>
                </mxCell>
                <mxCell id="139" style="edgeStyle=orthogonalEdgeStyle;rounded=0;html=1;exitX=0.5;exitY=1;exitDx=0;exitDy=0;entryX=0;entryY=0.57;entryDx=0;entryDy=0;entryPerimeter=0;endArrow=none;endFill=0;startArrow=none;" parent="1" source="143" target="6" edge="1">
                    <mxGeometry relative="1" as="geometry">
                        <Array as="points">
                            <mxPoint x="565" y="675"/>
                        </Array>
                    </mxGeometry>
                </mxCell>
                <mxCell id="147" style="edgeStyle=orthogonalEdgeStyle;html=1;exitX=0.7;exitY=0;exitDx=0;exitDy=0;exitPerimeter=0;entryX=1;entryY=0.5;entryDx=0;entryDy=0;rounded=0;endArrow=none;endFill=0;" edge="1" parent="1" source="121" target="145">
                    <mxGeometry relative="1" as="geometry">
                        <Array as="points">
                            <mxPoint x="390" y="465"/>
                            <mxPoint x="390" y="234"/>
                        </Array>
                    </mxGeometry>
                </mxCell>
                <mxCell id="121" value="" style="verticalLabelPosition=bottom;shadow=0;dashed=0;align=center;html=1;verticalAlign=top;shape=mxgraph.electrical.transistors.npn_transistor_1;direction=east;" parent="1" vertex="1">
                    <mxGeometry x="405" y="465" width="95" height="100" as="geometry"/>
                </mxCell>
                <mxCell id="122" value="" style="pointerEvents=1;verticalLabelPosition=bottom;shadow=0;dashed=0;align=center;html=1;verticalAlign=top;shape=mxgraph.electrical.resistors.resistor_2;direction=north;" parent="1" vertex="1">
                    <mxGeometry x="330" y="400" width="20" height="100" as="geometry"/>
                </mxCell>
                <mxCell id="130" style="edgeStyle=orthogonalEdgeStyle;rounded=0;html=1;exitX=1;exitY=0.12;exitDx=0;exitDy=0;entryX=1;entryY=0.5;entryDx=0;entryDy=0;endArrow=none;endFill=0;" parent="1" source="124" target="125" edge="1">
                    <mxGeometry relative="1" as="geometry"/>
                </mxCell>
                <mxCell id="134" style="edgeStyle=orthogonalEdgeStyle;rounded=0;html=1;exitX=1;exitY=0.88;exitDx=0;exitDy=0;entryX=0;entryY=0;entryDx=0;entryDy=0;endArrow=none;endFill=0;" parent="1" source="124" target="131" edge="1">
                    <mxGeometry relative="1" as="geometry">
                        <Array as="points">
                            <mxPoint x="231" y="321"/>
                            <mxPoint x="231" y="399"/>
                            <mxPoint x="242" y="399"/>
                        </Array>
                    </mxGeometry>
                </mxCell>
                <mxCell id="135" style="edgeStyle=orthogonalEdgeStyle;rounded=0;html=1;exitX=0;exitY=0.5;exitDx=0;exitDy=0;entryX=1;entryY=0.5;entryDx=0;entryDy=0;entryPerimeter=0;endArrow=none;endFill=0;" parent="1" source="124" target="122" edge="1">
                    <mxGeometry relative="1" as="geometry">
                        <Array as="points">
                            <mxPoint x="320" y="400"/>
                        </Array>
                    </mxGeometry>
                </mxCell>
                <mxCell id="124" value="" style="shape=mxgraph.electrical.electro-mechanical.twoWaySwitch;aspect=fixed;elSwitchState=2;direction=west;flipV=1;" parent="1" vertex="1">
                    <mxGeometry x="250" y="318" width="70" height="24.27" as="geometry"/>
                </mxCell>
                <mxCell id="126" value="" style="edgeStyle=orthogonalEdgeStyle;rounded=0;html=1;entryX=0.5;entryY=1;entryDx=0;entryDy=0;endArrow=none;endFill=0;" parent="1" source="7" target="125" edge="1">
                    <mxGeometry relative="1" as="geometry">
                        <mxPoint x="170" y="390" as="sourcePoint"/>
                        <mxPoint x="170" y="197.5" as="targetPoint"/>
                    </mxGeometry>
                </mxCell>
                <mxCell id="125" value="" style="ellipse;whiteSpace=wrap;html=1;aspect=fixed;strokeColor=#000000;fillColor=#000000;" parent="1" vertex="1">
                    <mxGeometry x="166.25" y="288" width="7.5" height="7.5" as="geometry"/>
                </mxCell>
                <mxCell id="131" value="" style="ellipse;whiteSpace=wrap;html=1;aspect=fixed;strokeColor=#000000;fillColor=#000000;" parent="1" vertex="1">
                    <mxGeometry x="241.25" y="395" width="7.5" height="7.5" as="geometry"/>
                </mxCell>
                <mxCell id="138" value="4.7 kÎ©&lt;span style=&quot;&quot;&gt;&lt;br&gt;&lt;/span&gt;" style="text;html=1;align=center;verticalAlign=middle;resizable=0;points=[];autosize=1;strokeColor=none;fillColor=none;rotation=0;" parent="1" vertex="1">
                    <mxGeometry x="278.25" y="435" width="60" height="30" as="geometry"/>
                </mxCell>
                <mxCell id="140" value="input&amp;nbsp; B" style="text;html=1;align=center;verticalAlign=middle;resizable=0;points=[];autosize=1;strokeColor=none;fillColor=none;labelBackgroundColor=none;" parent="1" vertex="1">
                    <mxGeometry x="260" y="342.27" width="60" height="30" as="geometry"/>
                </mxCell>
                <mxCell id="142" value="" style="edgeStyle=orthogonalEdgeStyle;rounded=0;html=1;exitX=0.7;exitY=1;exitDx=0;exitDy=0;exitPerimeter=0;entryX=0;entryY=0.57;entryDx=0;entryDy=0;entryPerimeter=0;endArrow=none;endFill=0;" edge="1" parent="1" source="121" target="141">
                    <mxGeometry relative="1" as="geometry">
                        <mxPoint x="470.68181818181824" y="565" as="sourcePoint"/>
                        <mxPoint x="550" y="675.0999999999999" as="targetPoint"/>
                    </mxGeometry>
                </mxCell>
                <mxCell id="141" value="" style="ellipse;whiteSpace=wrap;html=1;aspect=fixed;strokeColor=#000000;fillColor=#000000;" vertex="1" parent="1">
                    <mxGeometry x="560" y="597" width="10" height="10" as="geometry"/>
                </mxCell>
                <mxCell id="144" value="" style="edgeStyle=orthogonalEdgeStyle;rounded=0;html=1;exitX=0.5;exitY=1;exitDx=0;exitDy=0;entryX=0;entryY=0.57;entryDx=0;entryDy=0;entryPerimeter=0;endArrow=none;endFill=0;startArrow=none;" edge="1" parent="1" source="141" target="143">
                    <mxGeometry relative="1" as="geometry">
                        <mxPoint x="565" y="607" as="sourcePoint"/>
                        <mxPoint x="550" y="675.1" as="targetPoint"/>
                        <Array as="points">
                            <mxPoint x="565" y="676"/>
                        </Array>
                    </mxGeometry>
                </mxCell>
                <mxCell id="143" value="" style="ellipse;whiteSpace=wrap;html=1;aspect=fixed;strokeColor=#000000;fillColor=#000000;" vertex="1" parent="1">
                    <mxGeometry x="560" y="670" width="10" height="10" as="geometry"/>
                </mxCell>
                <mxCell id="146" value="" style="edgeStyle=orthogonalEdgeStyle;rounded=0;html=1;entryX=0.5;entryY=1;entryDx=0;entryDy=0;endArrow=none;endFill=0;startArrow=none;" edge="1" parent="1" source="125" target="145">
                    <mxGeometry relative="1" as="geometry">
                        <mxPoint x="170" y="288" as="sourcePoint"/>
                        <mxPoint x="170" y="197.5" as="targetPoint"/>
                    </mxGeometry>
                </mxCell>
                <mxCell id="145" value="" style="ellipse;whiteSpace=wrap;html=1;aspect=fixed;strokeColor=#000000;fillColor=#000000;" vertex="1" parent="1">
                    <mxGeometry x="166.25" y="230" width="7.5" height="7.5" as="geometry"/>
                </mxCell>
            </root>
        </mxGraphModel>
    </diagram>
</mxfile>